<svg enable-background="new 0 0 462.2 444.3" viewBox="0 0 462.2 444.3" xmlns="http://www.w3.org/2000/svg"><g fill="#5667b1"><path d="m65.5 199.7s-48.5-30.4 0-38.8c-2.4-23.7 6.7-44 31.4-43.7 0-29.1 39.2-21.3 33.1 9.7-2.9 34.3-7.3 53.2-7.3 53.2l-16.2 11.9z"/><path d="m239.1 167.3s-38.4-16.9-11.8-40.4 52 9.9 52 9.9-10.5-45.7 19.2-45.4 17.5 25 17.5 25 21-35.9 42.1-19.8 14.2 32.7 14.2 32.7l-78.1 24.7z"/><path d="m230.9 60.9c-18.1-11.1-16.7-31.4 0-35.3s36.5 57.7 0 35.3z"/><path d="m314 45.7c7.9-17.2 9.2-24.3-3.5-25s-22.5 22.8-11.6 30.8 12.6-.5 15.1-5.8z"/></g><path d="m101 193.1s-38.7-14.3-7-32.2c-5.5-27.3-1.9-60.5 50.5-42.4 31.6-16.5 47.8-7.4 43.5 19.9 20.1-5.1 36.4 10.6 20.4 34.7z" fill="#f15946"/><path d="m279.3 125.6c-40.8 9.2-67.9-32.3-53.8-48s29.8-6.2 36.7 6.5c11.8-29.7 31.5-31.7 41.8-24.6s5.8 59.2-24.7 66.1z" fill="#f15946"/><path d="m334 24.4c-14.7 5.4-26.6-7.4-9.8-12.5s38.4 2 9.8 12.5z" fill="#f15946"/><path d="m118.4 88.2c4.8 11.8-21.9 15.6-21.5 0s12.2-22.9 21.5 0z" fill="#f15946"/><path d="m432.3 112.7-100.9 183.6-87.9 18.5-177.7-110.1 101.1-18.9h.1l109.2-20.4c.2 0 .5-.1.7-.2l41.8-14.1z" fill="#fff"/><path d="m460.6 56.5c2.1 1.8 2.3 5 .4 7.1l-36.7 41.3 17-5.8c2.6-.9 5.5.5 6.4 3.1.5 1.3.3 2.8-.4 4l-103 187.4c2.6-.5 5.2 1.2 5.8 3.9.5 2.4-.8 4.9-3.2 5.7l-55.4 20.7 52.7-9.9c2.7-.5 5.3 1.3 5.8 4s-1.3 5.3-4 5.8l-106.4 19.9-21.5 71.3c-.6 2.1-2.6 3.6-4.8 3.6-.5 0-1-.1-1.4-.2-2.6-.8-4.1-3.6-3.4-6.2l18.9-62.6c-1.9 4.2-4 8.3-6.1 12.4-6.5 12.3-16.4 28.8-27.3 30.4-.6.1-1.1.1-1.7.1-3 0-6.9-1.2-10.3-5.6-3.2-4.1-4.4-9.5-3.1-14.6 1.9-8.3 9.4-16.6 17.9-23.6-.2 0-.3.1-.5.1-14.4 3.2-24.8 4.4-32.3 4.4-13.8 0-18-3.8-19.9-5.4-2.9-2.5-5.9-7.2-4.2-15.2 1.3-6.3 5.4-11.7 11.1-14.6 8.7-4.6 22.3-5.1 40.4-1.6l-41-13c-2.7-.7-4.2-3.5-3.5-6.1.7-2.7 3.5-4.2 6.1-3.5.1 0 .3.1.4.1l75.7 24h.2l-179.8-111.5c-2.3-1.5-3.1-4.5-1.6-6.9.7-1.2 1.9-2 3.3-2.3l10.8-2-58.8-22.8c-2.6-1-3.9-3.9-2.9-6.5s3.9-3.8 6.5-2.8l74 28.7 72.9-13.6-39.4-28.2c-2.2-1.6-2.8-4.7-1.2-7s4.7-2.8 7-1.1l36.2 25.9-8.6-25.3c-.9-2.6.4-5.5 3.1-6.4 2.6-.9 5.5.4 6.4 3.1v.1l12.2 36 104.6-19.6 39.4-13.3 13.1-31.8c1.1-2.6 4-3.8 6.5-2.7s3.8 4 2.7 6.5l-9.8 23.7 79.1-26.8 48.3-54.4c2-2.1 5.2-2.3 7.3-.4zm-129.2 239.8 100.9-183.6-113.7 38.5-41.8 14.1c-.2.1-.5.1-.7.2l-109.2 20.4h-.1l-101 18.8 177.7 110.1zm-94.9 37.6 45-16.9-37.5 7.9c-.3.1-.6.1-.9.2l-12.3 2.6c-.1.1-.2.1-.4.1 1 .4 2 .8 3 1.1 2 .9 3.2 2.9 3.1 5zm-43.7 48.6c5.1-.7 15.7-14.7 25.9-37.2-12.5 7.9-27.7 19.5-29.9 29.1-.6 2.2-.1 4.6 1.4 6.4 1.3 1.9 2.2 1.7 2.6 1.7zm23.3-49.3c-6.8-2.2-14.7-4.5-22.7-6.3s-16.1-3-23.1-3c-5.8 0-10.9.8-14.6 2.8-3.1 1.5-5.4 4.4-6 7.8-.8 3.9.5 5.1 1.1 5.6 7.7 6.8 39.2.9 65.3-6.9z"/><path d="m436.6 54.3c.9 5.5-1.1 11.1-5.3 14.7l-34 29c-2.9 2.4-6.5 3.7-10.2 3.7-4.3 0-8.4-1.7-11.4-4.7l-.2-.2c-5.6-5.7-5.5-14.9.2-20.5.4-.4.9-.8 1.3-1.2l2.2-1.7c5.9-4.5 6.2-4.7 17.7-12.5 4.3-2.9 5.4-8.7 2.6-13-.2-.2-.4-.5-.6-.7-1-1.2-2.2-2.6-4-4.7-1.7-2-4.6-2.6-6.9-1.5l-15.2 7.3c-3.1 1.5-6.6 1.9-9.9 1.3l-11.5-2.3c-3.2-.6-6.2 1.5-6.8 4.6-.6 3.2 1.5 6.2 4.6 6.8.6.1 1.3.1 1.9 0 30.1-4.3 31-4.3 31.6-4.3 2.8-.1 5 2.1 5.1 4.9s-2.1 5-4.9 5.1c-.8.1-5.3.6-30.4 4.2-8.7 1.2-16.7-4.8-17.9-13.5s4.8-16.7 13.5-17.9c1.8-.2 3.5-.2 5.3.1l11.6 2.2c1.2.2 2.5.1 3.6-.5l15.1-7.3c6.4-3.1 14.1-1.5 18.8 3.9 1.9 2.1 3.1 3.6 4.2 4.9 6.8 8.3 5.6 20.5-2.6 27.3-.5.4-.9.8-1.4 1.1-11.3 7.6-11.5 7.8-17.2 12.2l-2.2 1.6c-2 1.5-2.4 4.3-.9 6.3.1.1.2.3.4.4l.2.2c2.1 2.2 5.6 2.4 8 .4l34-29c1.6-1.3 2.3-3.4 2-5.4-1.5-8.8-6.5-30.1-19.8-36.9-6.6-3.4-15-2.8-24.7 1.9-1.8.9-3.8 1.4-5.9 1.5-40.5 2.5-58.6 8-58.8 33.9-.3 27.5 36 28.2 37.6 28.3 2.8 0 5 2.3 5 5 0 2.8-2.3 5-5 5-1 0-24.6-.4-38.2-14.2-6.3-6.4-9.4-14.5-9.3-24.2.2-17 7.1-28.4 21.3-35.2 11.5-5.5 26.5-7.3 47-8.6.7 0 1.3-.2 2-.4 12.7-6.1 24-6.7 33.6-1.8 16.4 8.8 22.7 31.6 24.8 44.4z"/><path d="m370.3 403.7c1.9 2 1.7 5.2-.3 7.1-.9.9-2.1 1.3-3.4 1.3-1.4 0-2.7-.6-3.7-1.6l-12.6-13.7 2.1 8.6c.6 2.7-1 5.3-3.7 6-.4.1-.8.2-1.2.2-2.3 0-4.3-1.6-4.9-3.8l-6.4-26.1-13-14.1 14.4 50.2c.8 2.6-.8 5.4-3.4 6.2-.4.1-.9.2-1.4.2-2.2 0-4.2-1.5-4.8-3.6l-19.5-68.1-2.9 47.4 13.3 31.6c.3.6.4 1.3.4 1.9 0 2-1.1 3.8-3.1 4.6-.6.3-1.3.4-1.9.4-2 0-3.8-1.2-4.6-3.1l-5.5-13-.7 10.8c-.1 2.6-2.3 4.7-5 4.7h-.3c-2.8-.2-4.8-2.5-4.7-5.3l1.9-31-17.3-41c-1.1-2.5 0-5.5 2.5-6.6s5.5 0 6.6 2.5c0 .1 0 .1.1.2l9.5 22.5 1.8-28.8c.2-2.8 2.5-4.9 5.3-4.7 1.6.1 2.9.9 3.8 2.2.3-1.8 1.6-3.3 3.4-3.9 2.1-.7 4.4.2 5.6 1.9l14.7 15.9-2.9-11.7c-.7-2.7 1-5.4 3.7-6.1s5.4 1 6 3.7l7.2 29.3z"/><path d="m292 438.1c.6 2.7-1 5.4-3.7 6-.4.1-.8.2-1.2.2-2.3 0-4.3-1.6-4.9-3.8l-18.2-75.4c-.8-2.7.8-5.4 3.4-6.2 2.7-.8 5.4.8 6.2 3.4 0 .1.1.2.1.4z"/><path d="m262.9 80c-.1 0-.2 0-.2 0-.3.1-.6.1-.9.1h-.1c-.2 0-.3 0-.5-.1-.2 0-.3 0-.5-.1-.2 0-.4-.1-.6-.2-.1 0-.3-.1-.4-.1-.2-.1-.4-.2-.5-.3s-.2-.1-.3-.2c-.2-.1-.3-.2-.5-.4-.1-.1-.2-.1-.3-.2s-.3-.3-.4-.5c-.1-.1-.1-.2-.2-.3-.1-.2-.2-.4-.3-.6 0-.1-.1-.2-.1-.3-.1-.2-.1-.4-.2-.6 0-.1-.1-.2-.1-.3 0-.2-.1-.4-.1-.7 0-.1 0-.2 0-.3l.7-67.6c0-2.7 2.3-4.9 5-4.9h.1c2.8 0 5 2.3 4.9 5.1l-.4 49 31.9-54c1.3-2.4 4.3-3.4 6.8-2.1s3.4 4.3 2.1 6.8c-.1.2-.2.3-.2.4l-41.4 70.1s-.1.1-.1.1c-.1.1-.1.2-.2.3-.1.2-.2.3-.4.4-.1.1-.1.2-.2.2-.2.2-.4.3-.5.4s-.2.1-.2.2c-.2.1-.4.2-.6.3-.1 0-.1.1-.2.1-.3.1-.6.2-.9.3z"/><path d="m232 43.9c5.5 2.8 8.8 8.7 8.4 14.9l-2.6 36.9c-.4 4.8-2.9 9.2-6.9 11.9l-6.5 4.3c-7.2 4.7-16.8 2.8-21.5-4.4-2.5-3.7-3.2-8.3-2-12.7l4.7-17.3c.6-2.4-.4-4.9-2.5-6.2l-2.3-1.4c-2.3-1.4-5.3-.9-7.1 1.1l-7 8.1c-3.2 3.7-8.1 5.7-13 5.3l-19.9-1.6c-3-.3-5.7 2-6 5-.3 3.1 1.9 5.8 5 6h.3l34.2 1.4c2.8.1 4.9 2.4 4.8 5.2s-2.4 4.9-5.2 4.8l-34.2-1.4c-8.6-.2-15.4-7.3-15.2-15.9s7.3-15.4 15.9-15.2c.4 0 .8 0 1.2.1l19.9 1.6c1.8.1 3.5-.6 4.6-1.9l7-8.1c4.9-5.8 13.4-7.1 19.8-3.1l2.3 1.4c5.9 3.6 8.7 10.7 6.9 17.4l-4.7 17.3c-.8 3 .9 6 3.9 6.8 1.5.4 3.2.2 4.5-.7l6.5-4.3c1.4-1 2.4-2.5 2.5-4.3l2.6-36.9c.2-2.2-1-4.3-3-5.3l-10.2-5.2c-12.9-6.7-28.5-5.5-40.2 3.1l-16.4 11.9c-2.2 1.6-4.9 2.6-7.6 2.9l-22.3 2.2c-2.3.2-4.2 1.8-4.8 4l-1.5 5.4c-3.5 12.8 2.4 26.3 14.1 32.5l17 9c2.4 1.3 3.4 4.3 2.1 6.8-.9 1.7-2.6 2.7-4.4 2.7-.8 0-1.6-.2-2.3-.6l-17-9c-15.8-8.4-23.7-26.7-19-44l1.5-5.4c1.7-6.2 7-10.7 13.4-11.3l22.2-2.2c1-.1 1.9-.4 2.7-1l16.4-11.9c14.8-10.9 34.4-12.4 50.7-3.9z"/><path d="m94.3 154.9c-.1 0-.1 0-.2 0-.2 0-.4-.1-.6-.2-.1 0-.1-.1-.2-.1-.2-.1-.4-.2-.5-.2s-.1-.1-.2-.1c-.2-.1-.4-.2-.5-.4 0 0-.1 0-.1-.1l-.2-.1-42.8-35.9c-2.1-1.8-2.4-4.9-.6-7s4.9-2.4 7-.6l27.5 23.1-17.5-43.6c-1.2-2.5-.1-5.5 2.3-6.7 2.5-1.2 5.5-.1 6.7 2.4.1.2.2.4.2.6l24.8 61.5c1 1.8.9 4-.5 5.7-.8.9-1.8 1.5-2.9 1.7h-.1c-.2 0-.5.1-.7.1-.1 0-.1 0-.2 0s0 0-.1 0c-.1-.1-.4-.1-.6-.1z"/></svg>