<svg viewBox="0 0 310.31 431.52" xmlns="http://www.w3.org/2000/svg">
  <path d="m298 431.52h-285.72a12.29 12.29 0 0 1 -12.28-12.27v-345.17a12.3 12.3 0 0 1 12.28-12.28h285.72a12.29 12.29 0 0 1 12.27 12.28v345.17a12.28 12.28 0 0 1 -12.27 12.27zm-285.72-359.72a2.29 2.29 0 0 0 -2.28 2.28v345.17a2.28 2.28 0 0 0 2.28 2.27h285.72a2.27 2.27 0 0 0 2.27-2.27v-345.17a2.28 2.28 0 0 0 -2.27-2.28z" />
  <path d="m255.15 431.52a5 5 0 0 1 -5-5v-359.72a5 5 0 1 1 10 0v359.72a5 5 0 0 1 -5 5z" />
  <path d="m132.38 375.42a5 5 0 0 1 -4.94-4.24c-7.77-50.53-40.44-155.41-40.75-156.46a5 5 0 0 1 9.55-3c1.09 3.51 22.25 71.46 34.41 124.37 10.18-92.69 27.35-151.27 27.54-151.92a5 5 0 0 1 9.59 2.84c-.22.72-21.33 72.83-30.41 183.8a5 5 0 0 1 -4.81 4.59z" />
  <path d="m132.38 375.42a4.88 4.88 0 0 1 -1.55-.25 303.48 303.48 0 0 1 -34.68-14.25c-24.59-12-39.4-24.1-44-36a21.62 21.62 0 0 1 1.32-19c4.15-7.4 9.89-9 14-9.09 11.4-.2 26.18 11.62 45.15 36.09a412.83 412.83 0 0 1 24.09 34.9 5 5 0 0 1 -4.28 7.59zm-64.7-68.58h-.1c-1.49 0-3.46.5-5.42 4a11.5 11.5 0 0 0 -.71 10.49c6 15.37 37.27 30.72 58.66 39.26-4.12-6.16-9.53-13.91-15.5-21.59-22.44-28.94-33.24-32.16-36.93-32.16z" />
  <path d="m132.39 375.42a5 5 0 0 1 -4.81-6.37 500.7 500.7 0 0 1 17.22-48.72c14.29-34.2 28.39-54.21 41.92-59.46a19.86 19.86 0 0 1 18.28 1.67 18.5 18.5 0 0 1 9.27 15.16c1.88 31.88-70.49 90.11-78.75 96.64a5 5 0 0 1 -3.13 1.08zm61.91-106a10.92 10.92 0 0 0 -4 .8c-10.59 4.11-23.48 23.29-36.31 54-4.81 11.52-8.84 22.78-11.74 31.46 7.19-6.2 16.52-14.56 25.73-23.72 32.38-32.22 36.61-47.44 36.24-53.64a8.52 8.52 0 0 0 -4.53-7.24 10.23 10.23 0 0 0 -5.39-1.69z" />
  <path d="m163.66 134.41s1.57-23.23-11.62-18.36c-22.61 8.36-43 74 2 92.37s74.08-52.48 66.64-68.56c-8.83-19.07-31.85 8.45-31.85 8.45s11.35-20.09-2.35-26.18-22.82 12.28-22.82 12.28z" fill="#f15946" />
  <path d="m100.65 226.69c20.7-10.49 26.55-87.61-6.59-86.38-24 4.61-11.57 30.58-11.57 30.58s-25.87-38.16-41.78-18.73c-18.31 22.37 15.2 97.21 59.94 74.53z" fill="#5667b1" />
  <path d="m76.58 71.81a4.87 4.87 0 0 1 -1.58-.25 5 5 0 0 1 -3.22-6.3l14.43-44.44a30 30 0 0 1 28.63-20.82h60.16a30 30 0 0 1 28.63 20.82l14.37 44.44a5 5 0 1 1 -9.52 3.08l-14.39-44.44a20 20 0 0 0 -19.09-13.9h-60.16a20.06 20.06 0 0 0 -19.12 13.9l-14.39 44.44a5 5 0 0 1 -4.75 3.47z" />
  <path d="m167.49 50.46h-45.16a14.56 14.56 0 0 1 0-29.12h45.16a14.56 14.56 0 0 1 0 29.12zm-45.16-19.12a4.56 4.56 0 0 0 0 9.12h45.16a4.56 4.56 0 1 0 0-9.12z" />
</svg>
