<svg viewBox="0 0 437.3 473.09" xmlns="http://www.w3.org/2000/svg">
  <path d="m40.82 234a5 5 0 0 1 -2.82-9.12c39.65-27.17 19-64.08 18.12-65.64a5 5 0 0 1 8.64-5 63.77 63.77 0 0 1 7.42 27.1c.62 14.3-3.84 34.9-28.53 51.82a5 5 0 0 1 -2.83.84z" />
  <path d="m135.93 432.57a14.72 14.72 0 0 1 -2.23-.16c-4.7-.7-8.54-3.65-11.42-8.76-1.59-2.82-3.41-8.68 2.21-16.25 6.1-8.2 18.87-15.59 33.06-19-39.05-7.83-75 8.43-75.4 8.64a5 5 0 0 1 -4.2-9.08c2.32-1.08 57.48-26 108.88 0a5 5 0 0 1 2 1.74 1.58 1.58 0 0 1 .15.24 5 5 0 0 1 .58 3.46 1.74 1.74 0 0 1 0 .22 4.94 4.94 0 0 1 -1.45 2.48c-27.64 26.42-41.88 36.47-52.18 36.47zm37.39-36.25c-17.4.17-35 9.24-40.8 17.05-1.18 1.59-2.41 3.81-1.53 5.37 1.72 3.05 3.14 3.62 4.18 3.78 7.46 1.07 25.89-14.83 38.15-26.2z" />
  <path d="m260.68 370.5a4.89 4.89 0 0 1 -.85-.08h-.12c-71.29-13.9-119.82-44.74-144.26-91.67-20.28-38.96-19.59-80.75-19.17-105.68v-1.29a5 5 0 0 1 8.86-3.1l143.05 173.8-68.3-217.56a5 5 0 0 1 6.77-6.09c1.47.64 36.53 16.16 64 54.68a169.51 169.51 0 0 1 30 77c4.68 35.29-.45 74.54-15.25 116.67v.1a5.15 5.15 0 0 1 -1 1.65 4.82 4.82 0 0 1 -1.28 1 5 5 0 0 1 -1.27.48 5.11 5.11 0 0 1 -1.18.09zm-154.54-184.89c-.06 52.19 8.82 140.47 141.54 172zm87-52 67.63 215.49c10.5-34.91 13.87-67.48 10-97a159.67 159.67 0 0 0 -28-72.4 168.71 168.71 0 0 0 -49.65-46.06z" />
  <path d="m253.32 473.09c-18.39 0-33.29-13.58-37.95-34.6-5.74-25.87 5.39-59.88 43.19-77.52a5 5 0 0 1 6.65 2.42c7.52 16.16 30.8 70.93 14.26 96.87-3.73 5.85-11.3 12.83-26.15 12.83zm5-100.79c-29.17 15.76-37.79 43.09-33.15 64 3.61 16.26 14.67 26.76 28.19 26.76 8.4 0 14.2-2.68 17.72-8.21 8.77-13.78 3.86-45.16-12.8-82.55z" />
  <path d="m329.25 430.35c-30.5 0-65.16-47-75.14-61.59a5 5 0 0 1 1.3-6.95c34.42-23.57 69.36-15.84 88.72 2.27 15.72 14.71 19.83 34.44 10.47 50.27-4.17 7.06-11.79 15.56-24.36 16zm-63.95-63c23.72 33.37 48.21 53.56 64.6 53 6.55-.22 11.81-3.84 16.09-11.07 6.88-11.64 3.46-26.51-8.7-37.89-15.66-14.66-43.57-21.14-71.99-4.06z" />
  <path d="m326.87 292a5 5 0 0 1 -4.5-7.17c29.78-62.05 30.23-118.82 25.35-155.52-5.29-39.89-17.83-65.41-18-65.66a5 5 0 1 1 8.95-4.47c.54 1.08 13.3 27 18.87 68.38 5.12 38.15 4.74 97.15-26.19 161.6a5 5 0 0 1 -4.48 2.84z" />
  <path d="m355.08 179.25a5 5 0 0 1 -3.08-1.07l-28.2-22.06a5 5 0 1 1 6.16-7.88l28.21 22.07a5 5 0 0 1 -3.09 8.94z" />
  <path d="m354.54 152.77a5 5 0 0 1 -3.7-8.37l22.16-24.35a5 5 0 1 1 7.39 6.74l-22.19 24.35a5 5 0 0 1 -3.66 1.63z" />
  <path d="m348.52 229.82a5 5 0 0 1 -4.59-7c1.21-2.8 30.05-68.79 61.4-78.06a24.7 24.7 0 0 1 21.58 3.24c10.24 6.82 11.11 15 10 20.69-5.22 27.7-68.28 56.82-87.36 61a4.86 4.86 0 0 1 -1.03.13zm64.4-76.18a16.44 16.44 0 0 0 -4.75.73c-18.95 5.6-39.8 40.94-50.42 62.47 25.51-9.27 66.23-33.3 69.37-50 .48-2.55.41-6.41-5.76-10.52a14.94 14.94 0 0 0 -8.44-2.68z" />
  <path d="m19.23 129.86s-15.51-11.46-18.68-1.15c-5.44 17.67 30.39 59.91 65.8 40.5s.2-69.26-14.79-71.95c-17.79-3.2-10 23.39-10 23.39s-8.4-16.06-19.56-10.39-2.77 19.6-2.77 19.6z" fill="#5667b1" />
  <path d="m63.72 428.94s-10.22 16.35.3 18.71c18 4.05 57.36-35 35.26-68.76s-69.07 5.19-70.58 20.35c-1.81 18 24.1 8.14 24.1 8.14s-15.36 9.62-8.8 20.28 19.72 1.28 19.72 1.28z" fill="#f15946" />
  <path d="m351.05 81.57c18.69-11.86 17.16-85.57-14.19-81.4-22.33 6.58-8.18 30.1-8.18 30.1s-28.06-33.85-41.37-13.94c-15.31 22.92 23.36 90.88 63.74 65.24z" fill="#f15946" />
  <g fill="#5667b1">
    <path d="m67.23 319c-19.59 17.12-47.66-23-34.59-36s50.36 22.28 34.59 36z" />
    <path d="m412.62 357c-25.5 22.23-62.06-30-45-47s65.55 29.07 45 47z" />
    <path d="m388.56 275.46c-12.77-20.42 28-40.25 38.08-26.37s-27.8 42.82-38.08 26.37z" />
  </g>
  <path d="m160.11 80.17c-33.5-10.26-7.59-71 16.69-65.31s10.31 73.57-16.69 65.31z" fill="#f15946" />
</svg>
