<svg viewBox="0 0 506.39 309.68" xmlns="http://www.w3.org/2000/svg">
  <path d="m505.9 80.14.48-23a55.92 55.92 0 0 0 -55.91-57.14h-184.47c-31.44 0-66.47 10.67-67.94 11.12h-.08c-3-.09-6.13-.16-9.24-.2a5.09 5.09 0 0 0 -1.17 0c-1.78 0-3.6 0-5.48 0-63.09-.02-119.56 88.45-121.93 92.21a4.82 4.82 0 0 0 -.45.91c0 .1-.05.2-.08.3a3.76 3.76 0 0 0 -.17.68.14.14 0 0 0 0 .06c-.15 1.08-3.67 26.32-2.84 67.43-8.62 4.49-34.8 18.42-50.82 31.65a15.95 15.95 0 0 0 9.89 28.25q6.15.09 12.08.25c-10.34 7.97-19.77 20.9-19.77 41.51 0 14.26 6.12 24.76 17.71 30.38 9.29 4.55 20.29 5.13 28.87 5.13 22.88 0 47.5-15.06 47.5-48.11 0-5.29 0-15.82-5.93-24.35 10.29 1.42 16.47 2.92 20.16 4.2 5.49 10.29 8.86 17.81 8.89 17.89a5 5 0 0 0 4.57 3h81.71a50.26 50.26 0 0 0 46.88-32.15h70.77a16.25 16.25 0 0 0 15.57 16.31c.07 7.49 1.55 21 10.36 30.91 6.88 7.72 16.69 11.63 29.17 11.63 17.65 0 33.44-8.42 45.65-24.36a92.45 92.45 0 0 0 11.74-20.45h3.91a15.71 15.71 0 0 0 15.39-19c-1.88-8.62-6.63-20.9-18.63-28.88l47.36-3.16a15.14 15.14 0 0 0 14.2-14.87l2-98.09zm-174.54 140h-70.29a51 51 0 0 0 .66-8.1v-5.87h32.93l47.55-3.17a43 43 0 0 0 -10.85 17.13zm163.92-110.53-195.95 2.57v-24.86l196.46-2.06zm1.1-52.72-.38 18.37-196.67 2.06v-9.66a144.65 144.65 0 0 0 -1.19-19.07l197.86 1.15a47 47 0 0 1 .38 7.15zm-197 65.29 195.74-2.56-.59 28.44-195.2 8.64zm151.09-112.18a46 46 0 0 1 43 29.72l-197.15-1.14c-3.25-13.88-8.67-22.85-14-28.58zm-163.11 34.49a125.51 125.51 0 0 1 2 23.12v128.5h-27.6v-154.59a26.63 26.63 0 0 0 -21.11-25.93q-4.86-1-10.48-1.83a204.35 204.35 0 0 1 35.15-3.76 23.4 23.4 0 0 1 8.49 5.54c6.47 6.3 11.19 16.31 13.55 28.95zm-112-23.2c-10.33 11.92-25.47 35.62-27.56 73.54-26.54 3.17-58.01 4.87-73.68 5.57 14.68-20.63 56.71-74.09 101.29-79.11zm-163.65 199.35a6 6 0 0 1 .46-8.77c16.09-13.3 44.15-28 50.44-31.19 12.94 1.88 29.7 19.33 46.94 48.67-8.86-1.83-20.75-3.35-35.55-4.47a64 64 0 0 0 -9.36-.67c-5.68-.36-11.74-.67-18.53-1-9.46-.39-19.62-.67-30.22-.84a5.92 5.92 0 0 1 -4.18-1.73zm51.57 30.78a10.83 10.83 0 0 1 5-1.49 4.7 4.7 0 0 1 2.39.58c1.76 1 2.82 3.51 2.91 6.86a27.39 27.39 0 0 1 -4 13.82c-5.28 9.13-13.53 13.47-17.39 11.24s-4.24-11.55 1-20.68a27.33 27.33 0 0 1 10.09-10.33zm61-16.4c-24.9-46-44.51-60.5-57.65-63.74a493.52 493.52 0 0 1 2.27-60.64c12.22-.49 48.27-2.15 78.68-5.71-.85 50.76 4.59 126.62 6.17 147.35h-20.75c-1.66-3.47-4.68-9.69-8.77-17.28zm94 16.68a39.91 39.91 0 0 1 -6.79.58h-47.77c-1.54-20.18-7.48-102.15-6.06-152.87 1.34-49.61 26.12-73.41 32.09-78.41 3.24 0 6.46.11 9.57.23 15.69.58 28.89 2 39.24 4.17a16.6 16.6 0 0 1 13.17 16.15v170.45a40.19 40.19 0 0 1 -33.46 39.67zm183.85 2.81a27.33 27.33 0 0 1 -10 10.33c-2.95 1.59-5.65 1.92-7.4.91s-2.82-3.51-2.91-6.86a27.29 27.29 0 0 1 3.95-13.82c4.36-7.55 10.75-11.82 15-11.82a4.68 4.68 0 0 1 2.37.58c3.86 2.23 4.25 11.55-1.02 20.68zm49-27.2a5.57 5.57 0 0 1 -1.13 4.69 5.71 5.71 0 0 1 -4.48 2.15h-11.67c-.8-4.79-2.93-12.07-8.59-17.76-5.45-5.48-12.84-8.26-22-8.26-24 0-36.69 20.34-40.77 28.33h-17.09a6.24 6.24 0 0 1 -4.87-2.33 6.32 6.32 0 0 1 -1.27-5.31c.19-.83.38-1.63.58-2.4a33.31 33.31 0 0 1 29.36-25.26h.49.12l42.5-2.84c14.86.02 33.63 5.09 38.83 28.99zm37.87-44.14-77.1 5.14h-.07l-42.67 2.85-.71.05-69.11 4.6v-29.1l194.94-8.63-.42 20a5.25 5.25 0 0 1 -4.86 5.09z" />
  <path d="m231.3 32.27-28.58-3.27a21.52 21.52 0 0 0 -20.94 10.29c-10.38 17.29-13.59 37.21-14.45 50.88a19.19 19.19 0 0 0 5.23 14.48 19.57 19.57 0 0 0 14.22 6.15h42.82a14.71 14.71 0 0 0 14.69-14.69v-49.24a14.7 14.7 0 0 0 -12.99-14.6zm3 63.84a4.69 4.69 0 0 1 -4.69 4.69h-42.83a9.45 9.45 0 0 1 -6.94-3 9.32 9.32 0 0 1 -2.53-7c.79-12.55 3.7-30.8 13.05-46.41a11.5 11.5 0 0 1 11.2-5.49l28.58 3.32a4.69 4.69 0 0 1 4.15 4.66z" />
  <path d="m236.57 127h-19.57a5 5 0 1 0 0 10h19.62a5 5 0 0 0 0-10z" />
</svg>
